 
    <svg viewBox="0 0 202.08 154.98" xmlns="http://www.w3.org/2000/svg">
    <style>
        rect {stroke-width:0.5;}
        text {text-anchor: middle; dominant-baseline: central;
               font-size:2px; fill:white; font-family:sans-serif;}
        .dff {fill: orange; stroke:#777;}
        .dly {fill: green; stroke:#777;}
    </style>
    <rect x="0" y="0" width="202.08" height="154.98" fill="none" stroke="red"/>
    
<rect class="dff" x="76.32000000000001" y="3.78" width="12.959999999999999" height="3.78"/>
<text x="82.80000000000001" y="5.67">0</text>
<rect class="dly" x="72.0" y="3.78" width="4.32" height="3.78"/>
<text x="74.16" y="5.67">0</text>
<rect class="dff" x="59.040000000000006" y="3.78" width="12.959999999999999" height="3.78"/>
<text x="65.52000000000001" y="5.67">1</text>
<rect class="dly" x="54.72" y="3.78" width="4.32" height="3.78"/>
<text x="56.879999999999995" y="5.67">1</text>
<rect class="dff" x="41.760000000000005" y="3.78" width="12.959999999999999" height="3.78"/>
<text x="48.24" y="5.67">2</text>
<rect class="dly" x="37.44" y="3.78" width="4.32" height="3.78"/>
<text x="39.599999999999994" y="5.67">2</text>
<rect class="dff" x="24.480000000000004" y="3.78" width="12.959999999999999" height="3.78"/>
<text x="30.960000000000004" y="5.67">3</text>
<rect class="dly" x="20.159999999999997" y="3.78" width="4.32" height="3.78"/>
<text x="22.319999999999997" y="5.67">3</text>
<rect class="dff" x="7.200000000000003" y="3.78" width="12.959999999999999" height="3.78"/>
<text x="13.680000000000003" y="5.67">4</text>
<rect class="dly" x="2.8799999999999955" y="3.78" width="4.32" height="3.78"/>
<text x="5.039999999999996" y="5.67">4</text>
<rect class="dff" x="112.80000000000001" y="3.78" width="12.959999999999999" height="3.78"/>
<text x="119.28000000000002" y="5.67">0</text>
<rect class="dly" x="125.76" y="3.78" width="4.32" height="3.78"/>
<text x="127.92" y="5.67">0</text>
<rect class="dff" x="130.08" y="3.78" width="12.959999999999999" height="3.78"/>
<text x="136.56" y="5.67">1</text>
<rect class="dly" x="143.04000000000002" y="3.78" width="4.32" height="3.78"/>
<text x="145.20000000000002" y="5.67">1</text>
<rect class="dff" x="147.36" y="3.78" width="12.959999999999999" height="3.78"/>
<text x="153.84" y="5.67">2</text>
<rect class="dly" x="160.32" y="3.78" width="4.32" height="3.78"/>
<text x="162.48" y="5.67">2</text>
<rect class="dff" x="164.64000000000001" y="3.78" width="12.959999999999999" height="3.78"/>
<text x="171.12" y="5.67">3</text>
<rect class="dly" x="177.60000000000002" y="3.78" width="4.32" height="3.78"/>
<text x="179.76000000000002" y="5.67">3</text>
<rect class="dff" x="181.92000000000002" y="3.78" width="12.959999999999999" height="3.78"/>
<text x="188.4" y="5.67">4</text>
<rect class="dly" x="194.88" y="3.78" width="4.32" height="3.78"/>
<text x="197.04" y="5.67">4</text>
<rect class="dff" x="2.88" y="7.56" width="12.959999999999999" height="3.78"/>
<text x="9.36" y="9.45">5</text>
<rect class="dly" x="15.84" y="7.56" width="4.32" height="3.78"/>
<text x="18.0" y="9.45">5</text>
<rect class="dff" x="20.16" y="7.56" width="12.959999999999999" height="3.78"/>
<text x="26.64" y="9.45">6</text>
<rect class="dly" x="33.120000000000005" y="7.56" width="4.32" height="3.78"/>
<text x="35.28" y="9.45">6</text>
<rect class="dff" x="37.440000000000005" y="7.56" width="12.959999999999999" height="3.78"/>
<text x="43.92" y="9.45">7</text>
<rect class="dly" x="50.400000000000006" y="7.56" width="4.32" height="3.78"/>
<text x="52.56" y="9.45">7</text>
<rect class="dff" x="54.720000000000006" y="7.56" width="12.959999999999999" height="3.78"/>
<text x="61.2" y="9.45">8</text>
<rect class="dly" x="67.68" y="7.56" width="4.32" height="3.78"/>
<text x="69.84" y="9.45">8</text>
<rect class="dff" x="72.0" y="7.56" width="12.959999999999999" height="3.78"/>
<text x="78.48" y="9.45">9</text>
<rect class="dly" x="84.96000000000001" y="7.56" width="4.32" height="3.78"/>
<text x="87.12" y="9.45">9</text>
<rect class="dff" x="186.24" y="7.56" width="12.959999999999999" height="3.78"/>
<text x="192.72" y="9.45">5</text>
<rect class="dly" x="181.92000000000002" y="7.56" width="4.32" height="3.78"/>
<text x="184.08" y="9.45">5</text>
<rect class="dff" x="168.96" y="7.56" width="12.959999999999999" height="3.78"/>
<text x="175.44" y="9.45">6</text>
<rect class="dly" x="164.64000000000001" y="7.56" width="4.32" height="3.78"/>
<text x="166.8" y="9.45">6</text>
<rect class="dff" x="151.68" y="7.56" width="12.959999999999999" height="3.78"/>
<text x="158.16" y="9.45">7</text>
<rect class="dly" x="147.36" y="7.56" width="4.32" height="3.78"/>
<text x="149.52" y="9.45">7</text>
<rect class="dff" x="134.4" y="7.56" width="12.959999999999999" height="3.78"/>
<text x="140.88" y="9.45">8</text>
<rect class="dly" x="130.08" y="7.56" width="4.32" height="3.78"/>
<text x="132.24" y="9.45">8</text>
<rect class="dff" x="117.12" y="7.56" width="12.959999999999999" height="3.78"/>
<text x="123.60000000000001" y="9.45">9</text>
<rect class="dly" x="112.80000000000001" y="7.56" width="4.32" height="3.78"/>
<text x="114.96000000000001" y="9.45">9</text>
<rect class="dff" x="76.32000000000001" y="11.34" width="12.959999999999999" height="3.78"/>
<text x="82.80000000000001" y="13.23">10</text>
<rect class="dly" x="72.0" y="11.34" width="4.32" height="3.78"/>
<text x="74.16" y="13.23">10</text>
<rect class="dff" x="59.040000000000006" y="11.34" width="12.959999999999999" height="3.78"/>
<text x="65.52000000000001" y="13.23">11</text>
<rect class="dly" x="54.72" y="11.34" width="4.32" height="3.78"/>
<text x="56.879999999999995" y="13.23">11</text>
<rect class="dff" x="41.760000000000005" y="11.34" width="12.959999999999999" height="3.78"/>
<text x="48.24" y="13.23">12</text>
<rect class="dly" x="37.44" y="11.34" width="4.32" height="3.78"/>
<text x="39.599999999999994" y="13.23">12</text>
<rect class="dff" x="24.480000000000004" y="11.34" width="12.959999999999999" height="3.78"/>
<text x="30.960000000000004" y="13.23">13</text>
<rect class="dly" x="20.159999999999997" y="11.34" width="4.32" height="3.78"/>
<text x="22.319999999999997" y="13.23">13</text>
<rect class="dff" x="7.200000000000003" y="11.34" width="12.959999999999999" height="3.78"/>
<text x="13.680000000000003" y="13.23">14</text>
<rect class="dly" x="2.8799999999999955" y="11.34" width="4.32" height="3.78"/>
<text x="5.039999999999996" y="13.23">14</text>
<rect class="dff" x="112.80000000000001" y="11.34" width="12.959999999999999" height="3.78"/>
<text x="119.28000000000002" y="13.23">10</text>
<rect class="dly" x="125.76" y="11.34" width="4.32" height="3.78"/>
<text x="127.92" y="13.23">10</text>
<rect class="dff" x="130.08" y="11.34" width="12.959999999999999" height="3.78"/>
<text x="136.56" y="13.23">11</text>
<rect class="dly" x="143.04000000000002" y="11.34" width="4.32" height="3.78"/>
<text x="145.20000000000002" y="13.23">11</text>
<rect class="dff" x="147.36" y="11.34" width="12.959999999999999" height="3.78"/>
<text x="153.84" y="13.23">12</text>
<rect class="dly" x="160.32" y="11.34" width="4.32" height="3.78"/>
<text x="162.48" y="13.23">12</text>
<rect class="dff" x="164.64000000000001" y="11.34" width="12.959999999999999" height="3.78"/>
<text x="171.12" y="13.23">13</text>
<rect class="dly" x="177.60000000000002" y="11.34" width="4.32" height="3.78"/>
<text x="179.76000000000002" y="13.23">13</text>
<rect class="dff" x="181.92000000000002" y="11.34" width="12.959999999999999" height="3.78"/>
<text x="188.4" y="13.23">14</text>
<rect class="dly" x="194.88" y="11.34" width="4.32" height="3.78"/>
<text x="197.04" y="13.23">14</text>
<rect class="dff" x="2.88" y="15.12" width="12.959999999999999" height="3.78"/>
<text x="9.36" y="17.009999999999998">15</text>
<rect class="dly" x="15.84" y="15.12" width="4.32" height="3.78"/>
<text x="18.0" y="17.009999999999998">15</text>
<rect class="dff" x="20.16" y="15.12" width="12.959999999999999" height="3.78"/>
<text x="26.64" y="17.009999999999998">16</text>
<rect class="dly" x="33.120000000000005" y="15.12" width="4.32" height="3.78"/>
<text x="35.28" y="17.009999999999998">16</text>
<rect class="dff" x="37.440000000000005" y="15.12" width="12.959999999999999" height="3.78"/>
<text x="43.92" y="17.009999999999998">17</text>
<rect class="dly" x="50.400000000000006" y="15.12" width="4.32" height="3.78"/>
<text x="52.56" y="17.009999999999998">17</text>
<rect class="dff" x="54.720000000000006" y="15.12" width="12.959999999999999" height="3.78"/>
<text x="61.2" y="17.009999999999998">18</text>
<rect class="dly" x="67.68" y="15.12" width="4.32" height="3.78"/>
<text x="69.84" y="17.009999999999998">18</text>
<rect class="dff" x="72.0" y="15.12" width="12.959999999999999" height="3.78"/>
<text x="78.48" y="17.009999999999998">19</text>
<rect class="dly" x="84.96000000000001" y="15.12" width="4.32" height="3.78"/>
<text x="87.12" y="17.009999999999998">19</text>
<rect class="dff" x="186.24" y="15.12" width="12.959999999999999" height="3.78"/>
<text x="192.72" y="17.009999999999998">15</text>
<rect class="dly" x="181.92000000000002" y="15.12" width="4.32" height="3.78"/>
<text x="184.08" y="17.009999999999998">15</text>
<rect class="dff" x="168.96" y="15.12" width="12.959999999999999" height="3.78"/>
<text x="175.44" y="17.009999999999998">16</text>
<rect class="dly" x="164.64000000000001" y="15.12" width="4.32" height="3.78"/>
<text x="166.8" y="17.009999999999998">16</text>
<rect class="dff" x="151.68" y="15.12" width="12.959999999999999" height="3.78"/>
<text x="158.16" y="17.009999999999998">17</text>
<rect class="dly" x="147.36" y="15.12" width="4.32" height="3.78"/>
<text x="149.52" y="17.009999999999998">17</text>
<rect class="dff" x="134.4" y="15.12" width="12.959999999999999" height="3.78"/>
<text x="140.88" y="17.009999999999998">18</text>
<rect class="dly" x="130.08" y="15.12" width="4.32" height="3.78"/>
<text x="132.24" y="17.009999999999998">18</text>
<rect class="dff" x="117.12" y="15.12" width="12.959999999999999" height="3.78"/>
<text x="123.60000000000001" y="17.009999999999998">19</text>
<rect class="dly" x="112.80000000000001" y="15.12" width="4.32" height="3.78"/>
<text x="114.96000000000001" y="17.009999999999998">19</text>
<rect class="dff" x="59.04" y="18.9" width="12.959999999999999" height="3.78"/>
<text x="65.52" y="20.79">20</text>
<rect class="dly" x="54.72" y="18.9" width="4.32" height="3.78"/>
<text x="56.879999999999995" y="20.79">20</text>
<rect class="dff" x="41.76" y="18.9" width="12.959999999999999" height="3.78"/>
<text x="48.239999999999995" y="20.79">21</text>
<rect class="dly" x="37.44" y="18.9" width="4.32" height="3.78"/>
<text x="39.599999999999994" y="20.79">21</text>
<rect class="dff" x="24.479999999999997" y="18.9" width="12.959999999999999" height="3.78"/>
<text x="30.959999999999997" y="20.79">22</text>
<rect class="dly" x="20.159999999999997" y="18.9" width="4.32" height="3.78"/>
<text x="22.319999999999997" y="20.79">22</text>
<rect class="dff" x="7.199999999999996" y="18.9" width="12.959999999999999" height="3.78"/>
<text x="13.679999999999996" y="20.79">23</text>
<rect class="dly" x="2.8799999999999955" y="18.9" width="4.32" height="3.78"/>
<text x="5.039999999999996" y="20.79">23</text>
<rect class="dff" x="130.08" y="18.9" width="12.959999999999999" height="3.78"/>
<text x="136.56" y="20.79">20</text>
<rect class="dly" x="143.04000000000002" y="18.9" width="4.32" height="3.78"/>
<text x="145.20000000000002" y="20.79">20</text>
<rect class="dff" x="147.36" y="18.9" width="12.959999999999999" height="3.78"/>
<text x="153.84" y="20.79">21</text>
<rect class="dly" x="160.32000000000002" y="18.9" width="4.32" height="3.78"/>
<text x="162.48000000000002" y="20.79">21</text>
<rect class="dff" x="164.64000000000001" y="18.9" width="12.959999999999999" height="3.78"/>
<text x="171.12" y="20.79">22</text>
<rect class="dly" x="177.60000000000002" y="18.9" width="4.32" height="3.78"/>
<text x="179.76000000000002" y="20.79">22</text>
<rect class="dff" x="181.92000000000002" y="18.9" width="12.959999999999999" height="3.78"/>
<text x="188.4" y="20.79">23</text>
<rect class="dly" x="194.88000000000002" y="18.9" width="4.32" height="3.78"/>
<text x="197.04000000000002" y="20.79">23</text>
<rect class="dff" x="2.88" y="22.68" width="12.959999999999999" height="3.78"/>
<text x="9.36" y="24.57">24</text>
<rect class="dly" x="15.84" y="22.68" width="4.32" height="3.78"/>
<text x="18.0" y="24.57">24</text>
<rect class="dff" x="20.16" y="22.68" width="12.959999999999999" height="3.78"/>
<text x="26.64" y="24.57">25</text>
<rect class="dly" x="33.120000000000005" y="22.68" width="4.32" height="3.78"/>
<text x="35.28" y="24.57">25</text>
<rect class="dff" x="37.440000000000005" y="22.68" width="12.959999999999999" height="3.78"/>
<text x="43.92" y="24.57">26</text>
<rect class="dly" x="50.400000000000006" y="22.68" width="4.32" height="3.78"/>
<text x="52.56" y="24.57">26</text>
<rect class="dff" x="54.720000000000006" y="22.68" width="12.959999999999999" height="3.78"/>
<text x="61.2" y="24.57">27</text>
<rect class="dly" x="67.68" y="22.68" width="4.32" height="3.78"/>
<text x="69.84" y="24.57">27</text>
<rect class="dff" x="186.24" y="22.68" width="12.959999999999999" height="3.78"/>
<text x="192.72" y="24.57">24</text>
<rect class="dly" x="181.92000000000002" y="22.68" width="4.32" height="3.78"/>
<text x="184.08" y="24.57">24</text>
<rect class="dff" x="168.96" y="22.68" width="12.959999999999999" height="3.78"/>
<text x="175.44" y="24.57">25</text>
<rect class="dly" x="164.64000000000001" y="22.68" width="4.32" height="3.78"/>
<text x="166.8" y="24.57">25</text>
<rect class="dff" x="151.68" y="22.68" width="12.959999999999999" height="3.78"/>
<text x="158.16" y="24.57">26</text>
<rect class="dly" x="147.36" y="22.68" width="4.32" height="3.78"/>
<text x="149.52" y="24.57">26</text>
<rect class="dff" x="134.4" y="22.68" width="12.959999999999999" height="3.78"/>
<text x="140.88" y="24.57">27</text>
<rect class="dly" x="130.08" y="22.68" width="4.32" height="3.78"/>
<text x="132.24" y="24.57">27</text>
<rect class="dff" x="59.04" y="26.459999999999997" width="12.959999999999999" height="3.78"/>
<text x="65.52" y="28.349999999999998">28</text>
<rect class="dly" x="54.72" y="26.459999999999997" width="4.32" height="3.78"/>
<text x="56.879999999999995" y="28.349999999999998">28</text>
<rect class="dff" x="41.76" y="26.459999999999997" width="12.959999999999999" height="3.78"/>
<text x="48.239999999999995" y="28.349999999999998">29</text>
<rect class="dly" x="37.44" y="26.459999999999997" width="4.32" height="3.78"/>
<text x="39.599999999999994" y="28.349999999999998">29</text>
<rect class="dff" x="24.479999999999997" y="26.459999999999997" width="12.959999999999999" height="3.78"/>
<text x="30.959999999999997" y="28.349999999999998">30</text>
<rect class="dly" x="20.159999999999997" y="26.459999999999997" width="4.32" height="3.78"/>
<text x="22.319999999999997" y="28.349999999999998">30</text>
<rect class="dff" x="7.199999999999996" y="26.459999999999997" width="12.959999999999999" height="3.78"/>
<text x="13.679999999999996" y="28.349999999999998">31</text>
<rect class="dly" x="2.8799999999999955" y="26.459999999999997" width="4.32" height="3.78"/>
<text x="5.039999999999996" y="28.349999999999998">31</text>
<rect class="dff" x="130.08" y="26.459999999999997" width="12.959999999999999" height="3.78"/>
<text x="136.56" y="28.349999999999998">28</text>
<rect class="dly" x="143.04000000000002" y="26.459999999999997" width="4.32" height="3.78"/>
<text x="145.20000000000002" y="28.349999999999998">28</text>
<rect class="dff" x="147.36" y="26.459999999999997" width="12.959999999999999" height="3.78"/>
<text x="153.84" y="28.349999999999998">29</text>
<rect class="dly" x="160.32000000000002" y="26.459999999999997" width="4.32" height="3.78"/>
<text x="162.48000000000002" y="28.349999999999998">29</text>
<rect class="dff" x="164.64000000000001" y="26.459999999999997" width="12.959999999999999" height="3.78"/>
<text x="171.12" y="28.349999999999998">30</text>
<rect class="dly" x="177.60000000000002" y="26.459999999999997" width="4.32" height="3.78"/>
<text x="179.76000000000002" y="28.349999999999998">30</text>
<rect class="dff" x="181.92000000000002" y="26.459999999999997" width="12.959999999999999" height="3.78"/>
<text x="188.4" y="28.349999999999998">31</text>
<rect class="dly" x="194.88000000000002" y="26.459999999999997" width="4.32" height="3.78"/>
<text x="197.04000000000002" y="28.349999999999998">31</text>
<rect class="dff" x="2.88" y="30.24" width="12.959999999999999" height="3.78"/>
<text x="9.36" y="32.129999999999995">32</text>
<rect class="dly" x="15.84" y="30.24" width="4.32" height="3.78"/>
<text x="18.0" y="32.129999999999995">32</text>
<rect class="dff" x="20.16" y="30.24" width="12.959999999999999" height="3.78"/>
<text x="26.64" y="32.129999999999995">33</text>
<rect class="dly" x="33.120000000000005" y="30.24" width="4.32" height="3.78"/>
<text x="35.28" y="32.129999999999995">33</text>
<rect class="dff" x="37.440000000000005" y="30.24" width="12.959999999999999" height="3.78"/>
<text x="43.92" y="32.129999999999995">34</text>
<rect class="dly" x="50.400000000000006" y="30.24" width="4.32" height="3.78"/>
<text x="52.56" y="32.129999999999995">34</text>
<rect class="dff" x="54.720000000000006" y="30.24" width="12.959999999999999" height="3.78"/>
<text x="61.2" y="32.129999999999995">35</text>
<rect class="dly" x="67.68" y="30.24" width="4.32" height="3.78"/>
<text x="69.84" y="32.129999999999995">35</text>
<rect class="dff" x="186.24" y="30.24" width="12.959999999999999" height="3.78"/>
<text x="192.72" y="32.129999999999995">32</text>
<rect class="dly" x="181.92000000000002" y="30.24" width="4.32" height="3.78"/>
<text x="184.08" y="32.129999999999995">32</text>
<rect class="dff" x="168.96" y="30.24" width="12.959999999999999" height="3.78"/>
<text x="175.44" y="32.129999999999995">33</text>
<rect class="dly" x="164.64000000000001" y="30.24" width="4.32" height="3.78"/>
<text x="166.8" y="32.129999999999995">33</text>
<rect class="dff" x="151.68" y="30.24" width="12.959999999999999" height="3.78"/>
<text x="158.16" y="32.129999999999995">34</text>
<rect class="dly" x="147.36" y="30.24" width="4.32" height="3.78"/>
<text x="149.52" y="32.129999999999995">34</text>
<rect class="dff" x="134.4" y="30.24" width="12.959999999999999" height="3.78"/>
<text x="140.88" y="32.129999999999995">35</text>
<rect class="dly" x="130.08" y="30.24" width="4.32" height="3.78"/>
<text x="132.24" y="32.129999999999995">35</text>
<rect class="dff" x="59.04" y="34.019999999999996" width="12.959999999999999" height="3.78"/>
<text x="65.52" y="35.91">36</text>
<rect class="dly" x="54.72" y="34.019999999999996" width="4.32" height="3.78"/>
<text x="56.879999999999995" y="35.91">36</text>
<rect class="dff" x="41.76" y="34.019999999999996" width="12.959999999999999" height="3.78"/>
<text x="48.239999999999995" y="35.91">37</text>
<rect class="dly" x="37.44" y="34.019999999999996" width="4.32" height="3.78"/>
<text x="39.599999999999994" y="35.91">37</text>
<rect class="dff" x="24.479999999999997" y="34.019999999999996" width="12.959999999999999" height="3.78"/>
<text x="30.959999999999997" y="35.91">38</text>
<rect class="dly" x="20.159999999999997" y="34.019999999999996" width="4.32" height="3.78"/>
<text x="22.319999999999997" y="35.91">38</text>
<rect class="dff" x="7.199999999999996" y="34.019999999999996" width="12.959999999999999" height="3.78"/>
<text x="13.679999999999996" y="35.91">39</text>
<rect class="dly" x="2.8799999999999955" y="34.019999999999996" width="4.32" height="3.78"/>
<text x="5.039999999999996" y="35.91">39</text>
<rect class="dff" x="130.08" y="34.019999999999996" width="12.959999999999999" height="3.78"/>
<text x="136.56" y="35.91">36</text>
<rect class="dly" x="143.04000000000002" y="34.019999999999996" width="4.32" height="3.78"/>
<text x="145.20000000000002" y="35.91">36</text>
<rect class="dff" x="147.36" y="34.019999999999996" width="12.959999999999999" height="3.78"/>
<text x="153.84" y="35.91">37</text>
<rect class="dly" x="160.32000000000002" y="34.019999999999996" width="4.32" height="3.78"/>
<text x="162.48000000000002" y="35.91">37</text>
<rect class="dff" x="164.64000000000001" y="34.019999999999996" width="12.959999999999999" height="3.78"/>
<text x="171.12" y="35.91">38</text>
<rect class="dly" x="177.60000000000002" y="34.019999999999996" width="4.32" height="3.78"/>
<text x="179.76000000000002" y="35.91">38</text>
<rect class="dff" x="181.92000000000002" y="34.019999999999996" width="12.959999999999999" height="3.78"/>
<text x="188.4" y="35.91">39</text>
<rect class="dly" x="194.88000000000002" y="34.019999999999996" width="4.32" height="3.78"/>
<text x="197.04000000000002" y="35.91">39</text>
<rect class="dff" x="2.88" y="37.8" width="12.959999999999999" height="3.78"/>
<text x="9.36" y="39.69">40</text>
<rect class="dly" x="15.84" y="37.8" width="4.32" height="3.78"/>
<text x="18.0" y="39.69">40</text>
<rect class="dff" x="20.16" y="37.8" width="12.959999999999999" height="3.78"/>
<text x="26.64" y="39.69">41</text>
<rect class="dly" x="33.120000000000005" y="37.8" width="4.32" height="3.78"/>
<text x="35.28" y="39.69">41</text>
<rect class="dff" x="37.440000000000005" y="37.8" width="12.959999999999999" height="3.78"/>
<text x="43.92" y="39.69">42</text>
<rect class="dly" x="50.400000000000006" y="37.8" width="4.32" height="3.78"/>
<text x="52.56" y="39.69">42</text>
<rect class="dff" x="54.720000000000006" y="37.8" width="12.959999999999999" height="3.78"/>
<text x="61.2" y="39.69">43</text>
<rect class="dly" x="67.68" y="37.8" width="4.32" height="3.78"/>
<text x="69.84" y="39.69">43</text>
<rect class="dff" x="186.24" y="37.8" width="12.959999999999999" height="3.78"/>
<text x="192.72" y="39.69">40</text>
<rect class="dly" x="181.92000000000002" y="37.8" width="4.32" height="3.78"/>
<text x="184.08" y="39.69">40</text>
<rect class="dff" x="168.96" y="37.8" width="12.959999999999999" height="3.78"/>
<text x="175.44" y="39.69">41</text>
<rect class="dly" x="164.64000000000001" y="37.8" width="4.32" height="3.78"/>
<text x="166.8" y="39.69">41</text>
<rect class="dff" x="151.68" y="37.8" width="12.959999999999999" height="3.78"/>
<text x="158.16" y="39.69">42</text>
<rect class="dly" x="147.36" y="37.8" width="4.32" height="3.78"/>
<text x="149.52" y="39.69">42</text>
<rect class="dff" x="134.4" y="37.8" width="12.959999999999999" height="3.78"/>
<text x="140.88" y="39.69">43</text>
<rect class="dly" x="130.08" y="37.8" width="4.32" height="3.78"/>
<text x="132.24" y="39.69">43</text>
<rect class="dff" x="59.04" y="41.58" width="12.959999999999999" height="3.78"/>
<text x="65.52" y="43.47">44</text>
<rect class="dly" x="54.72" y="41.58" width="4.32" height="3.78"/>
<text x="56.879999999999995" y="43.47">44</text>
<rect class="dff" x="41.76" y="41.58" width="12.959999999999999" height="3.78"/>
<text x="48.239999999999995" y="43.47">45</text>
<rect class="dly" x="37.44" y="41.58" width="4.32" height="3.78"/>
<text x="39.599999999999994" y="43.47">45</text>
<rect class="dff" x="24.479999999999997" y="41.58" width="12.959999999999999" height="3.78"/>
<text x="30.959999999999997" y="43.47">46</text>
<rect class="dly" x="20.159999999999997" y="41.58" width="4.32" height="3.78"/>
<text x="22.319999999999997" y="43.47">46</text>
<rect class="dff" x="7.199999999999996" y="41.58" width="12.959999999999999" height="3.78"/>
<text x="13.679999999999996" y="43.47">47</text>
<rect class="dly" x="2.8799999999999955" y="41.58" width="4.32" height="3.78"/>
<text x="5.039999999999996" y="43.47">47</text>
<rect class="dff" x="130.08" y="41.58" width="12.959999999999999" height="3.78"/>
<text x="136.56" y="43.47">44</text>
<rect class="dly" x="143.04000000000002" y="41.58" width="4.32" height="3.78"/>
<text x="145.20000000000002" y="43.47">44</text>
<rect class="dff" x="147.36" y="41.58" width="12.959999999999999" height="3.78"/>
<text x="153.84" y="43.47">45</text>
<rect class="dly" x="160.32000000000002" y="41.58" width="4.32" height="3.78"/>
<text x="162.48000000000002" y="43.47">45</text>
<rect class="dff" x="164.64000000000001" y="41.58" width="12.959999999999999" height="3.78"/>
<text x="171.12" y="43.47">46</text>
<rect class="dly" x="177.60000000000002" y="41.58" width="4.32" height="3.78"/>
<text x="179.76000000000002" y="43.47">46</text>
<rect class="dff" x="181.92000000000002" y="41.58" width="12.959999999999999" height="3.78"/>
<text x="188.4" y="43.47">47</text>
<rect class="dly" x="194.88000000000002" y="41.58" width="4.32" height="3.78"/>
<text x="197.04000000000002" y="43.47">47</text>
<rect class="dff" x="2.88" y="45.36" width="12.959999999999999" height="3.78"/>
<text x="9.36" y="47.25">48</text>
<rect class="dly" x="15.84" y="45.36" width="4.32" height="3.78"/>
<text x="18.0" y="47.25">48</text>
<rect class="dff" x="20.16" y="45.36" width="12.959999999999999" height="3.78"/>
<text x="26.64" y="47.25">49</text>
<rect class="dly" x="33.120000000000005" y="45.36" width="4.32" height="3.78"/>
<text x="35.28" y="47.25">49</text>
<rect class="dff" x="37.440000000000005" y="45.36" width="12.959999999999999" height="3.78"/>
<text x="43.92" y="47.25">50</text>
<rect class="dly" x="50.400000000000006" y="45.36" width="4.32" height="3.78"/>
<text x="52.56" y="47.25">50</text>
<rect class="dff" x="54.720000000000006" y="45.36" width="12.959999999999999" height="3.78"/>
<text x="61.2" y="47.25">51</text>
<rect class="dly" x="67.68" y="45.36" width="4.32" height="3.78"/>
<text x="69.84" y="47.25">51</text>
<rect class="dff" x="186.24" y="45.36" width="12.959999999999999" height="3.78"/>
<text x="192.72" y="47.25">48</text>
<rect class="dly" x="181.92000000000002" y="45.36" width="4.32" height="3.78"/>
<text x="184.08" y="47.25">48</text>
<rect class="dff" x="168.96" y="45.36" width="12.959999999999999" height="3.78"/>
<text x="175.44" y="47.25">49</text>
<rect class="dly" x="164.64000000000001" y="45.36" width="4.32" height="3.78"/>
<text x="166.8" y="47.25">49</text>
<rect class="dff" x="151.68" y="45.36" width="12.959999999999999" height="3.78"/>
<text x="158.16" y="47.25">50</text>
<rect class="dly" x="147.36" y="45.36" width="4.32" height="3.78"/>
<text x="149.52" y="47.25">50</text>
<rect class="dff" x="134.4" y="45.36" width="12.959999999999999" height="3.78"/>
<text x="140.88" y="47.25">51</text>
<rect class="dly" x="130.08" y="45.36" width="4.32" height="3.78"/>
<text x="132.24" y="47.25">51</text>
<rect class="dff" x="59.04" y="49.14" width="12.959999999999999" height="3.78"/>
<text x="65.52" y="51.03">52</text>
<rect class="dly" x="54.72" y="49.14" width="4.32" height="3.78"/>
<text x="56.879999999999995" y="51.03">52</text>
<rect class="dff" x="41.76" y="49.14" width="12.959999999999999" height="3.78"/>
<text x="48.239999999999995" y="51.03">53</text>
<rect class="dly" x="37.44" y="49.14" width="4.32" height="3.78"/>
<text x="39.599999999999994" y="51.03">53</text>
<rect class="dff" x="24.479999999999997" y="49.14" width="12.959999999999999" height="3.78"/>
<text x="30.959999999999997" y="51.03">54</text>
<rect class="dly" x="20.159999999999997" y="49.14" width="4.32" height="3.78"/>
<text x="22.319999999999997" y="51.03">54</text>
<rect class="dff" x="7.199999999999996" y="49.14" width="12.959999999999999" height="3.78"/>
<text x="13.679999999999996" y="51.03">55</text>
<rect class="dly" x="2.8799999999999955" y="49.14" width="4.32" height="3.78"/>
<text x="5.039999999999996" y="51.03">55</text>
<rect class="dff" x="130.08" y="49.14" width="12.959999999999999" height="3.78"/>
<text x="136.56" y="51.03">52</text>
<rect class="dly" x="143.04000000000002" y="49.14" width="4.32" height="3.78"/>
<text x="145.20000000000002" y="51.03">52</text>
<rect class="dff" x="147.36" y="49.14" width="12.959999999999999" height="3.78"/>
<text x="153.84" y="51.03">53</text>
<rect class="dly" x="160.32000000000002" y="49.14" width="4.32" height="3.78"/>
<text x="162.48000000000002" y="51.03">53</text>
<rect class="dff" x="164.64000000000001" y="49.14" width="12.959999999999999" height="3.78"/>
<text x="171.12" y="51.03">54</text>
<rect class="dly" x="177.60000000000002" y="49.14" width="4.32" height="3.78"/>
<text x="179.76000000000002" y="51.03">54</text>
<rect class="dff" x="181.92000000000002" y="49.14" width="12.959999999999999" height="3.78"/>
<text x="188.4" y="51.03">55</text>
<rect class="dly" x="194.88000000000002" y="49.14" width="4.32" height="3.78"/>
<text x="197.04000000000002" y="51.03">55</text>
<rect class="dff" x="2.88" y="52.919999999999995" width="12.959999999999999" height="3.78"/>
<text x="9.36" y="54.809999999999995">56</text>
<rect class="dly" x="15.84" y="52.919999999999995" width="4.32" height="3.78"/>
<text x="18.0" y="54.809999999999995">56</text>
<rect class="dff" x="20.16" y="52.919999999999995" width="12.959999999999999" height="3.78"/>
<text x="26.64" y="54.809999999999995">57</text>
<rect class="dly" x="33.120000000000005" y="52.919999999999995" width="4.32" height="3.78"/>
<text x="35.28" y="54.809999999999995">57</text>
<rect class="dff" x="37.440000000000005" y="52.919999999999995" width="12.959999999999999" height="3.78"/>
<text x="43.92" y="54.809999999999995">58</text>
<rect class="dly" x="50.400000000000006" y="52.919999999999995" width="4.32" height="3.78"/>
<text x="52.56" y="54.809999999999995">58</text>
<rect class="dff" x="54.720000000000006" y="52.919999999999995" width="12.959999999999999" height="3.78"/>
<text x="61.2" y="54.809999999999995">59</text>
<rect class="dly" x="67.68" y="52.919999999999995" width="4.32" height="3.78"/>
<text x="69.84" y="54.809999999999995">59</text>
<rect class="dff" x="186.24" y="52.919999999999995" width="12.959999999999999" height="3.78"/>
<text x="192.72" y="54.809999999999995">56</text>
<rect class="dly" x="181.92000000000002" y="52.919999999999995" width="4.32" height="3.78"/>
<text x="184.08" y="54.809999999999995">56</text>
<rect class="dff" x="168.96" y="52.919999999999995" width="12.959999999999999" height="3.78"/>
<text x="175.44" y="54.809999999999995">57</text>
<rect class="dly" x="164.64000000000001" y="52.919999999999995" width="4.32" height="3.78"/>
<text x="166.8" y="54.809999999999995">57</text>
<rect class="dff" x="151.68" y="52.919999999999995" width="12.959999999999999" height="3.78"/>
<text x="158.16" y="54.809999999999995">58</text>
<rect class="dly" x="147.36" y="52.919999999999995" width="4.32" height="3.78"/>
<text x="149.52" y="54.809999999999995">58</text>
<rect class="dff" x="134.4" y="52.919999999999995" width="12.959999999999999" height="3.78"/>
<text x="140.88" y="54.809999999999995">59</text>
<rect class="dly" x="130.08" y="52.919999999999995" width="4.32" height="3.78"/>
<text x="132.24" y="54.809999999999995">59</text>
<rect class="dff" x="59.04" y="56.699999999999996" width="12.959999999999999" height="3.78"/>
<text x="65.52" y="58.589999999999996">60</text>
<rect class="dly" x="54.72" y="56.699999999999996" width="4.32" height="3.78"/>
<text x="56.879999999999995" y="58.589999999999996">60</text>
<rect class="dff" x="41.76" y="56.699999999999996" width="12.959999999999999" height="3.78"/>
<text x="48.239999999999995" y="58.589999999999996">61</text>
<rect class="dly" x="37.44" y="56.699999999999996" width="4.32" height="3.78"/>
<text x="39.599999999999994" y="58.589999999999996">61</text>
<rect class="dff" x="24.479999999999997" y="56.699999999999996" width="12.959999999999999" height="3.78"/>
<text x="30.959999999999997" y="58.589999999999996">62</text>
<rect class="dly" x="20.159999999999997" y="56.699999999999996" width="4.32" height="3.78"/>
<text x="22.319999999999997" y="58.589999999999996">62</text>
<rect class="dff" x="7.199999999999996" y="56.699999999999996" width="12.959999999999999" height="3.78"/>
<text x="13.679999999999996" y="58.589999999999996">63</text>
<rect class="dly" x="2.8799999999999955" y="56.699999999999996" width="4.32" height="3.78"/>
<text x="5.039999999999996" y="58.589999999999996">63</text>
<rect class="dff" x="130.08" y="56.699999999999996" width="12.959999999999999" height="3.78"/>
<text x="136.56" y="58.589999999999996">60</text>
<rect class="dly" x="143.04000000000002" y="56.699999999999996" width="4.32" height="3.78"/>
<text x="145.20000000000002" y="58.589999999999996">60</text>
<rect class="dff" x="147.36" y="56.699999999999996" width="12.959999999999999" height="3.78"/>
<text x="153.84" y="58.589999999999996">61</text>
<rect class="dly" x="160.32000000000002" y="56.699999999999996" width="4.32" height="3.78"/>
<text x="162.48000000000002" y="58.589999999999996">61</text>
<rect class="dff" x="164.64000000000001" y="56.699999999999996" width="12.959999999999999" height="3.78"/>
<text x="171.12" y="58.589999999999996">62</text>
<rect class="dly" x="177.60000000000002" y="56.699999999999996" width="4.32" height="3.78"/>
<text x="179.76000000000002" y="58.589999999999996">62</text>
<rect class="dff" x="181.92000000000002" y="56.699999999999996" width="12.959999999999999" height="3.78"/>
<text x="188.4" y="58.589999999999996">63</text>
<rect class="dly" x="194.88000000000002" y="56.699999999999996" width="4.32" height="3.78"/>
<text x="197.04000000000002" y="58.589999999999996">63</text>
<rect class="dff" x="2.88" y="60.48" width="12.959999999999999" height="3.78"/>
<text x="9.36" y="62.37">64</text>
<rect class="dly" x="15.84" y="60.48" width="4.32" height="3.78"/>
<text x="18.0" y="62.37">64</text>
<rect class="dff" x="20.16" y="60.48" width="12.959999999999999" height="3.78"/>
<text x="26.64" y="62.37">65</text>
<rect class="dly" x="33.120000000000005" y="60.48" width="4.32" height="3.78"/>
<text x="35.28" y="62.37">65</text>
<rect class="dff" x="37.440000000000005" y="60.48" width="12.959999999999999" height="3.78"/>
<text x="43.92" y="62.37">66</text>
<rect class="dly" x="50.400000000000006" y="60.48" width="4.32" height="3.78"/>
<text x="52.56" y="62.37">66</text>
<rect class="dff" x="54.720000000000006" y="60.48" width="12.959999999999999" height="3.78"/>
<text x="61.2" y="62.37">67</text>
<rect class="dly" x="67.68" y="60.48" width="4.32" height="3.78"/>
<text x="69.84" y="62.37">67</text>
<rect class="dff" x="186.24" y="60.48" width="12.959999999999999" height="3.78"/>
<text x="192.72" y="62.37">64</text>
<rect class="dly" x="181.92000000000002" y="60.48" width="4.32" height="3.78"/>
<text x="184.08" y="62.37">64</text>
<rect class="dff" x="168.96" y="60.48" width="12.959999999999999" height="3.78"/>
<text x="175.44" y="62.37">65</text>
<rect class="dly" x="164.64000000000001" y="60.48" width="4.32" height="3.78"/>
<text x="166.8" y="62.37">65</text>
<rect class="dff" x="151.68" y="60.48" width="12.959999999999999" height="3.78"/>
<text x="158.16" y="62.37">66</text>
<rect class="dly" x="147.36" y="60.48" width="4.32" height="3.78"/>
<text x="149.52" y="62.37">66</text>
<rect class="dff" x="134.4" y="60.48" width="12.959999999999999" height="3.78"/>
<text x="140.88" y="62.37">67</text>
<rect class="dly" x="130.08" y="60.48" width="4.32" height="3.78"/>
<text x="132.24" y="62.37">67</text>
<rect class="dff" x="59.04" y="64.25999999999999" width="12.959999999999999" height="3.78"/>
<text x="65.52" y="66.14999999999999">68</text>
<rect class="dly" x="54.72" y="64.25999999999999" width="4.32" height="3.78"/>
<text x="56.879999999999995" y="66.14999999999999">68</text>
<rect class="dff" x="41.76" y="64.25999999999999" width="12.959999999999999" height="3.78"/>
<text x="48.239999999999995" y="66.14999999999999">69</text>
<rect class="dly" x="37.44" y="64.25999999999999" width="4.32" height="3.78"/>
<text x="39.599999999999994" y="66.14999999999999">69</text>
<rect class="dff" x="24.479999999999997" y="64.25999999999999" width="12.959999999999999" height="3.78"/>
<text x="30.959999999999997" y="66.14999999999999">70</text>
<rect class="dly" x="20.159999999999997" y="64.25999999999999" width="4.32" height="3.78"/>
<text x="22.319999999999997" y="66.14999999999999">70</text>
<rect class="dff" x="7.199999999999996" y="64.25999999999999" width="12.959999999999999" height="3.78"/>
<text x="13.679999999999996" y="66.14999999999999">71</text>
<rect class="dly" x="2.8799999999999955" y="64.25999999999999" width="4.32" height="3.78"/>
<text x="5.039999999999996" y="66.14999999999999">71</text>
<rect class="dff" x="130.08" y="64.25999999999999" width="12.959999999999999" height="3.78"/>
<text x="136.56" y="66.14999999999999">68</text>
<rect class="dly" x="143.04000000000002" y="64.25999999999999" width="4.32" height="3.78"/>
<text x="145.20000000000002" y="66.14999999999999">68</text>
<rect class="dff" x="147.36" y="64.25999999999999" width="12.959999999999999" height="3.78"/>
<text x="153.84" y="66.14999999999999">69</text>
<rect class="dly" x="160.32000000000002" y="64.25999999999999" width="4.32" height="3.78"/>
<text x="162.48000000000002" y="66.14999999999999">69</text>
<rect class="dff" x="164.64000000000001" y="64.25999999999999" width="12.959999999999999" height="3.78"/>
<text x="171.12" y="66.14999999999999">70</text>
<rect class="dly" x="177.60000000000002" y="64.25999999999999" width="4.32" height="3.78"/>
<text x="179.76000000000002" y="66.14999999999999">70</text>
<rect class="dff" x="181.92000000000002" y="64.25999999999999" width="12.959999999999999" height="3.78"/>
<text x="188.4" y="66.14999999999999">71</text>
<rect class="dly" x="194.88000000000002" y="64.25999999999999" width="4.32" height="3.78"/>
<text x="197.04000000000002" y="66.14999999999999">71</text>
<rect class="dff" x="2.88" y="68.03999999999999" width="12.959999999999999" height="3.78"/>
<text x="9.36" y="69.92999999999999">72</text>
<rect class="dly" x="15.84" y="68.03999999999999" width="4.32" height="3.78"/>
<text x="18.0" y="69.92999999999999">72</text>
<rect class="dff" x="20.16" y="68.03999999999999" width="12.959999999999999" height="3.78"/>
<text x="26.64" y="69.92999999999999">73</text>
<rect class="dly" x="33.120000000000005" y="68.03999999999999" width="4.32" height="3.78"/>
<text x="35.28" y="69.92999999999999">73</text>
<rect class="dff" x="37.440000000000005" y="68.03999999999999" width="12.959999999999999" height="3.78"/>
<text x="43.92" y="69.92999999999999">74</text>
<rect class="dly" x="50.400000000000006" y="68.03999999999999" width="4.32" height="3.78"/>
<text x="52.56" y="69.92999999999999">74</text>
<rect class="dff" x="54.720000000000006" y="68.03999999999999" width="12.959999999999999" height="3.78"/>
<text x="61.2" y="69.92999999999999">75</text>
<rect class="dly" x="67.68" y="68.03999999999999" width="4.32" height="3.78"/>
<text x="69.84" y="69.92999999999999">75</text>
<rect class="dff" x="186.24" y="68.03999999999999" width="12.959999999999999" height="3.78"/>
<text x="192.72" y="69.92999999999999">72</text>
<rect class="dly" x="181.92000000000002" y="68.03999999999999" width="4.32" height="3.78"/>
<text x="184.08" y="69.92999999999999">72</text>
<rect class="dff" x="168.96" y="68.03999999999999" width="12.959999999999999" height="3.78"/>
<text x="175.44" y="69.92999999999999">73</text>
<rect class="dly" x="164.64000000000001" y="68.03999999999999" width="4.32" height="3.78"/>
<text x="166.8" y="69.92999999999999">73</text>
<rect class="dff" x="151.68" y="68.03999999999999" width="12.959999999999999" height="3.78"/>
<text x="158.16" y="69.92999999999999">74</text>
<rect class="dly" x="147.36" y="68.03999999999999" width="4.32" height="3.78"/>
<text x="149.52" y="69.92999999999999">74</text>
<rect class="dff" x="134.4" y="68.03999999999999" width="12.959999999999999" height="3.78"/>
<text x="140.88" y="69.92999999999999">75</text>
<rect class="dly" x="130.08" y="68.03999999999999" width="4.32" height="3.78"/>
<text x="132.24" y="69.92999999999999">75</text>
<rect class="dff" x="59.04" y="71.82" width="12.959999999999999" height="3.78"/>
<text x="65.52" y="73.71">76</text>
<rect class="dly" x="54.72" y="71.82" width="4.32" height="3.78"/>
<text x="56.879999999999995" y="73.71">76</text>
<rect class="dff" x="41.76" y="71.82" width="12.959999999999999" height="3.78"/>
<text x="48.239999999999995" y="73.71">77</text>
<rect class="dly" x="37.44" y="71.82" width="4.32" height="3.78"/>
<text x="39.599999999999994" y="73.71">77</text>
<rect class="dff" x="24.479999999999997" y="71.82" width="12.959999999999999" height="3.78"/>
<text x="30.959999999999997" y="73.71">78</text>
<rect class="dly" x="20.159999999999997" y="71.82" width="4.32" height="3.78"/>
<text x="22.319999999999997" y="73.71">78</text>
<rect class="dff" x="7.199999999999996" y="71.82" width="12.959999999999999" height="3.78"/>
<text x="13.679999999999996" y="73.71">79</text>
<rect class="dly" x="2.8799999999999955" y="71.82" width="4.32" height="3.78"/>
<text x="5.039999999999996" y="73.71">79</text>
<rect class="dff" x="130.08" y="71.82" width="12.959999999999999" height="3.78"/>
<text x="136.56" y="73.71">76</text>
<rect class="dly" x="143.04000000000002" y="71.82" width="4.32" height="3.78"/>
<text x="145.20000000000002" y="73.71">76</text>
<rect class="dff" x="147.36" y="71.82" width="12.959999999999999" height="3.78"/>
<text x="153.84" y="73.71">77</text>
<rect class="dly" x="160.32000000000002" y="71.82" width="4.32" height="3.78"/>
<text x="162.48000000000002" y="73.71">77</text>
<rect class="dff" x="164.64000000000001" y="71.82" width="12.959999999999999" height="3.78"/>
<text x="171.12" y="73.71">78</text>
<rect class="dly" x="177.60000000000002" y="71.82" width="4.32" height="3.78"/>
<text x="179.76000000000002" y="73.71">78</text>
<rect class="dff" x="181.92000000000002" y="71.82" width="12.959999999999999" height="3.78"/>
<text x="188.4" y="73.71">79</text>
<rect class="dly" x="194.88000000000002" y="71.82" width="4.32" height="3.78"/>
<text x="197.04000000000002" y="73.71">79</text>
<rect class="dff" x="2.88" y="75.6" width="12.959999999999999" height="3.78"/>
<text x="9.36" y="77.49">80</text>
<rect class="dly" x="15.84" y="75.6" width="4.32" height="3.78"/>
<text x="18.0" y="77.49">80</text>
<rect class="dff" x="20.16" y="75.6" width="12.959999999999999" height="3.78"/>
<text x="26.64" y="77.49">81</text>
<rect class="dly" x="33.120000000000005" y="75.6" width="4.32" height="3.78"/>
<text x="35.28" y="77.49">81</text>
<rect class="dff" x="37.440000000000005" y="75.6" width="12.959999999999999" height="3.78"/>
<text x="43.92" y="77.49">82</text>
<rect class="dly" x="50.400000000000006" y="75.6" width="4.32" height="3.78"/>
<text x="52.56" y="77.49">82</text>
<rect class="dff" x="54.720000000000006" y="75.6" width="12.959999999999999" height="3.78"/>
<text x="61.2" y="77.49">83</text>
<rect class="dly" x="67.68" y="75.6" width="4.32" height="3.78"/>
<text x="69.84" y="77.49">83</text>
<rect class="dff" x="186.24" y="75.6" width="12.959999999999999" height="3.78"/>
<text x="192.72" y="77.49">80</text>
<rect class="dly" x="181.92000000000002" y="75.6" width="4.32" height="3.78"/>
<text x="184.08" y="77.49">80</text>
<rect class="dff" x="168.96" y="75.6" width="12.959999999999999" height="3.78"/>
<text x="175.44" y="77.49">81</text>
<rect class="dly" x="164.64000000000001" y="75.6" width="4.32" height="3.78"/>
<text x="166.8" y="77.49">81</text>
<rect class="dff" x="151.68" y="75.6" width="12.959999999999999" height="3.78"/>
<text x="158.16" y="77.49">82</text>
<rect class="dly" x="147.36" y="75.6" width="4.32" height="3.78"/>
<text x="149.52" y="77.49">82</text>
<rect class="dff" x="134.4" y="75.6" width="12.959999999999999" height="3.78"/>
<text x="140.88" y="77.49">83</text>
<rect class="dly" x="130.08" y="75.6" width="4.32" height="3.78"/>
<text x="132.24" y="77.49">83</text>
<rect class="dff" x="59.04" y="79.38" width="12.959999999999999" height="3.78"/>
<text x="65.52" y="81.27">84</text>
<rect class="dly" x="54.72" y="79.38" width="4.32" height="3.78"/>
<text x="56.879999999999995" y="81.27">84</text>
<rect class="dff" x="41.76" y="79.38" width="12.959999999999999" height="3.78"/>
<text x="48.239999999999995" y="81.27">85</text>
<rect class="dly" x="37.44" y="79.38" width="4.32" height="3.78"/>
<text x="39.599999999999994" y="81.27">85</text>
<rect class="dff" x="24.479999999999997" y="79.38" width="12.959999999999999" height="3.78"/>
<text x="30.959999999999997" y="81.27">86</text>
<rect class="dly" x="20.159999999999997" y="79.38" width="4.32" height="3.78"/>
<text x="22.319999999999997" y="81.27">86</text>
<rect class="dff" x="7.199999999999996" y="79.38" width="12.959999999999999" height="3.78"/>
<text x="13.679999999999996" y="81.27">87</text>
<rect class="dly" x="2.8799999999999955" y="79.38" width="4.32" height="3.78"/>
<text x="5.039999999999996" y="81.27">87</text>
<rect class="dff" x="130.08" y="79.38" width="12.959999999999999" height="3.78"/>
<text x="136.56" y="81.27">84</text>
<rect class="dly" x="143.04000000000002" y="79.38" width="4.32" height="3.78"/>
<text x="145.20000000000002" y="81.27">84</text>
<rect class="dff" x="147.36" y="79.38" width="12.959999999999999" height="3.78"/>
<text x="153.84" y="81.27">85</text>
<rect class="dly" x="160.32000000000002" y="79.38" width="4.32" height="3.78"/>
<text x="162.48000000000002" y="81.27">85</text>
<rect class="dff" x="164.64000000000001" y="79.38" width="12.959999999999999" height="3.78"/>
<text x="171.12" y="81.27">86</text>
<rect class="dly" x="177.60000000000002" y="79.38" width="4.32" height="3.78"/>
<text x="179.76000000000002" y="81.27">86</text>
<rect class="dff" x="181.92000000000002" y="79.38" width="12.959999999999999" height="3.78"/>
<text x="188.4" y="81.27">87</text>
<rect class="dly" x="194.88000000000002" y="79.38" width="4.32" height="3.78"/>
<text x="197.04000000000002" y="81.27">87</text>
<rect class="dff" x="2.88" y="83.16" width="12.959999999999999" height="3.78"/>
<text x="9.36" y="85.05">88</text>
<rect class="dly" x="15.84" y="83.16" width="4.32" height="3.78"/>
<text x="18.0" y="85.05">88</text>
<rect class="dff" x="20.16" y="83.16" width="12.959999999999999" height="3.78"/>
<text x="26.64" y="85.05">89</text>
<rect class="dly" x="33.120000000000005" y="83.16" width="4.32" height="3.78"/>
<text x="35.28" y="85.05">89</text>
<rect class="dff" x="37.440000000000005" y="83.16" width="12.959999999999999" height="3.78"/>
<text x="43.92" y="85.05">90</text>
<rect class="dly" x="50.400000000000006" y="83.16" width="4.32" height="3.78"/>
<text x="52.56" y="85.05">90</text>
<rect class="dff" x="54.720000000000006" y="83.16" width="12.959999999999999" height="3.78"/>
<text x="61.2" y="85.05">91</text>
<rect class="dly" x="67.68" y="83.16" width="4.32" height="3.78"/>
<text x="69.84" y="85.05">91</text>
<rect class="dff" x="186.24" y="83.16" width="12.959999999999999" height="3.78"/>
<text x="192.72" y="85.05">88</text>
<rect class="dly" x="181.92000000000002" y="83.16" width="4.32" height="3.78"/>
<text x="184.08" y="85.05">88</text>
<rect class="dff" x="168.96" y="83.16" width="12.959999999999999" height="3.78"/>
<text x="175.44" y="85.05">89</text>
<rect class="dly" x="164.64000000000001" y="83.16" width="4.32" height="3.78"/>
<text x="166.8" y="85.05">89</text>
<rect class="dff" x="151.68" y="83.16" width="12.959999999999999" height="3.78"/>
<text x="158.16" y="85.05">90</text>
<rect class="dly" x="147.36" y="83.16" width="4.32" height="3.78"/>
<text x="149.52" y="85.05">90</text>
<rect class="dff" x="134.4" y="83.16" width="12.959999999999999" height="3.78"/>
<text x="140.88" y="85.05">91</text>
<rect class="dly" x="130.08" y="83.16" width="4.32" height="3.78"/>
<text x="132.24" y="85.05">91</text>
<rect class="dff" x="59.04" y="86.94" width="12.959999999999999" height="3.78"/>
<text x="65.52" y="88.83">92</text>
<rect class="dly" x="54.72" y="86.94" width="4.32" height="3.78"/>
<text x="56.879999999999995" y="88.83">92</text>
<rect class="dff" x="41.76" y="86.94" width="12.959999999999999" height="3.78"/>
<text x="48.239999999999995" y="88.83">93</text>
<rect class="dly" x="37.44" y="86.94" width="4.32" height="3.78"/>
<text x="39.599999999999994" y="88.83">93</text>
<rect class="dff" x="24.479999999999997" y="86.94" width="12.959999999999999" height="3.78"/>
<text x="30.959999999999997" y="88.83">94</text>
<rect class="dly" x="20.159999999999997" y="86.94" width="4.32" height="3.78"/>
<text x="22.319999999999997" y="88.83">94</text>
<rect class="dff" x="7.199999999999996" y="86.94" width="12.959999999999999" height="3.78"/>
<text x="13.679999999999996" y="88.83">95</text>
<rect class="dly" x="2.8799999999999955" y="86.94" width="4.32" height="3.78"/>
<text x="5.039999999999996" y="88.83">95</text>
<rect class="dff" x="130.08" y="86.94" width="12.959999999999999" height="3.78"/>
<text x="136.56" y="88.83">92</text>
<rect class="dly" x="143.04000000000002" y="86.94" width="4.32" height="3.78"/>
<text x="145.20000000000002" y="88.83">92</text>
<rect class="dff" x="147.36" y="86.94" width="12.959999999999999" height="3.78"/>
<text x="153.84" y="88.83">93</text>
<rect class="dly" x="160.32000000000002" y="86.94" width="4.32" height="3.78"/>
<text x="162.48000000000002" y="88.83">93</text>
<rect class="dff" x="164.64000000000001" y="86.94" width="12.959999999999999" height="3.78"/>
<text x="171.12" y="88.83">94</text>
<rect class="dly" x="177.60000000000002" y="86.94" width="4.32" height="3.78"/>
<text x="179.76000000000002" y="88.83">94</text>
<rect class="dff" x="181.92000000000002" y="86.94" width="12.959999999999999" height="3.78"/>
<text x="188.4" y="88.83">95</text>
<rect class="dly" x="194.88000000000002" y="86.94" width="4.32" height="3.78"/>
<text x="197.04000000000002" y="88.83">95</text>
<rect class="dff" x="2.88" y="90.72" width="12.959999999999999" height="3.78"/>
<text x="9.36" y="92.61">96</text>
<rect class="dly" x="15.84" y="90.72" width="4.32" height="3.78"/>
<text x="18.0" y="92.61">96</text>
<rect class="dff" x="20.16" y="90.72" width="12.959999999999999" height="3.78"/>
<text x="26.64" y="92.61">97</text>
<rect class="dly" x="33.120000000000005" y="90.72" width="4.32" height="3.78"/>
<text x="35.28" y="92.61">97</text>
<rect class="dff" x="37.440000000000005" y="90.72" width="12.959999999999999" height="3.78"/>
<text x="43.92" y="92.61">98</text>
<rect class="dly" x="50.400000000000006" y="90.72" width="4.32" height="3.78"/>
<text x="52.56" y="92.61">98</text>
<rect class="dff" x="54.720000000000006" y="90.72" width="12.959999999999999" height="3.78"/>
<text x="61.2" y="92.61">99</text>
<rect class="dly" x="67.68" y="90.72" width="4.32" height="3.78"/>
<text x="69.84" y="92.61">99</text>
<rect class="dff" x="186.24" y="90.72" width="12.959999999999999" height="3.78"/>
<text x="192.72" y="92.61">96</text>
<rect class="dly" x="181.92000000000002" y="90.72" width="4.32" height="3.78"/>
<text x="184.08" y="92.61">96</text>
<rect class="dff" x="168.96" y="90.72" width="12.959999999999999" height="3.78"/>
<text x="175.44" y="92.61">97</text>
<rect class="dly" x="164.64000000000001" y="90.72" width="4.32" height="3.78"/>
<text x="166.8" y="92.61">97</text>
<rect class="dff" x="151.68" y="90.72" width="12.959999999999999" height="3.78"/>
<text x="158.16" y="92.61">98</text>
<rect class="dly" x="147.36" y="90.72" width="4.32" height="3.78"/>
<text x="149.52" y="92.61">98</text>
<rect class="dff" x="134.4" y="90.72" width="12.959999999999999" height="3.78"/>
<text x="140.88" y="92.61">99</text>
<rect class="dly" x="130.08" y="90.72" width="4.32" height="3.78"/>
<text x="132.24" y="92.61">99</text>
<rect class="dff" x="59.04" y="94.5" width="12.959999999999999" height="3.78"/>
<text x="65.52" y="96.39">100</text>
<rect class="dly" x="54.72" y="94.5" width="4.32" height="3.78"/>
<text x="56.879999999999995" y="96.39">100</text>
<rect class="dff" x="41.76" y="94.5" width="12.959999999999999" height="3.78"/>
<text x="48.239999999999995" y="96.39">101</text>
<rect class="dly" x="37.44" y="94.5" width="4.32" height="3.78"/>
<text x="39.599999999999994" y="96.39">101</text>
<rect class="dff" x="24.479999999999997" y="94.5" width="12.959999999999999" height="3.78"/>
<text x="30.959999999999997" y="96.39">102</text>
<rect class="dly" x="20.159999999999997" y="94.5" width="4.32" height="3.78"/>
<text x="22.319999999999997" y="96.39">102</text>
<rect class="dff" x="7.199999999999996" y="94.5" width="12.959999999999999" height="3.78"/>
<text x="13.679999999999996" y="96.39">103</text>
<rect class="dly" x="2.8799999999999955" y="94.5" width="4.32" height="3.78"/>
<text x="5.039999999999996" y="96.39">103</text>
<rect class="dff" x="130.08" y="94.5" width="12.959999999999999" height="3.78"/>
<text x="136.56" y="96.39">100</text>
<rect class="dly" x="143.04000000000002" y="94.5" width="4.32" height="3.78"/>
<text x="145.20000000000002" y="96.39">100</text>
<rect class="dff" x="147.36" y="94.5" width="12.959999999999999" height="3.78"/>
<text x="153.84" y="96.39">101</text>
<rect class="dly" x="160.32000000000002" y="94.5" width="4.32" height="3.78"/>
<text x="162.48000000000002" y="96.39">101</text>
<rect class="dff" x="164.64000000000001" y="94.5" width="12.959999999999999" height="3.78"/>
<text x="171.12" y="96.39">102</text>
<rect class="dly" x="177.60000000000002" y="94.5" width="4.32" height="3.78"/>
<text x="179.76000000000002" y="96.39">102</text>
<rect class="dff" x="181.92000000000002" y="94.5" width="12.959999999999999" height="3.78"/>
<text x="188.4" y="96.39">103</text>
<rect class="dly" x="194.88000000000002" y="94.5" width="4.32" height="3.78"/>
<text x="197.04000000000002" y="96.39">103</text>
<rect class="dff" x="2.88" y="98.28" width="12.959999999999999" height="3.78"/>
<text x="9.36" y="100.17">104</text>
<rect class="dly" x="15.84" y="98.28" width="4.32" height="3.78"/>
<text x="18.0" y="100.17">104</text>
<rect class="dff" x="20.16" y="98.28" width="12.959999999999999" height="3.78"/>
<text x="26.64" y="100.17">105</text>
<rect class="dly" x="33.120000000000005" y="98.28" width="4.32" height="3.78"/>
<text x="35.28" y="100.17">105</text>
<rect class="dff" x="37.440000000000005" y="98.28" width="12.959999999999999" height="3.78"/>
<text x="43.92" y="100.17">106</text>
<rect class="dly" x="50.400000000000006" y="98.28" width="4.32" height="3.78"/>
<text x="52.56" y="100.17">106</text>
<rect class="dff" x="54.720000000000006" y="98.28" width="12.959999999999999" height="3.78"/>
<text x="61.2" y="100.17">107</text>
<rect class="dly" x="67.68" y="98.28" width="4.32" height="3.78"/>
<text x="69.84" y="100.17">107</text>
<rect class="dff" x="186.24" y="98.28" width="12.959999999999999" height="3.78"/>
<text x="192.72" y="100.17">104</text>
<rect class="dly" x="181.92000000000002" y="98.28" width="4.32" height="3.78"/>
<text x="184.08" y="100.17">104</text>
<rect class="dff" x="168.96" y="98.28" width="12.959999999999999" height="3.78"/>
<text x="175.44" y="100.17">105</text>
<rect class="dly" x="164.64000000000001" y="98.28" width="4.32" height="3.78"/>
<text x="166.8" y="100.17">105</text>
<rect class="dff" x="151.68" y="98.28" width="12.959999999999999" height="3.78"/>
<text x="158.16" y="100.17">106</text>
<rect class="dly" x="147.36" y="98.28" width="4.32" height="3.78"/>
<text x="149.52" y="100.17">106</text>
<rect class="dff" x="134.4" y="98.28" width="12.959999999999999" height="3.78"/>
<text x="140.88" y="100.17">107</text>
<rect class="dly" x="130.08" y="98.28" width="4.32" height="3.78"/>
<text x="132.24" y="100.17">107</text>
<rect class="dff" x="59.04" y="102.05999999999999" width="12.959999999999999" height="3.78"/>
<text x="65.52" y="103.94999999999999">108</text>
<rect class="dly" x="54.72" y="102.05999999999999" width="4.32" height="3.78"/>
<text x="56.879999999999995" y="103.94999999999999">108</text>
<rect class="dff" x="41.76" y="102.05999999999999" width="12.959999999999999" height="3.78"/>
<text x="48.239999999999995" y="103.94999999999999">109</text>
<rect class="dly" x="37.44" y="102.05999999999999" width="4.32" height="3.78"/>
<text x="39.599999999999994" y="103.94999999999999">109</text>
<rect class="dff" x="24.479999999999997" y="102.05999999999999" width="12.959999999999999" height="3.78"/>
<text x="30.959999999999997" y="103.94999999999999">110</text>
<rect class="dly" x="20.159999999999997" y="102.05999999999999" width="4.32" height="3.78"/>
<text x="22.319999999999997" y="103.94999999999999">110</text>
<rect class="dff" x="7.199999999999996" y="102.05999999999999" width="12.959999999999999" height="3.78"/>
<text x="13.679999999999996" y="103.94999999999999">111</text>
<rect class="dly" x="2.8799999999999955" y="102.05999999999999" width="4.32" height="3.78"/>
<text x="5.039999999999996" y="103.94999999999999">111</text>
<rect class="dff" x="130.08" y="102.05999999999999" width="12.959999999999999" height="3.78"/>
<text x="136.56" y="103.94999999999999">108</text>
<rect class="dly" x="143.04000000000002" y="102.05999999999999" width="4.32" height="3.78"/>
<text x="145.20000000000002" y="103.94999999999999">108</text>
<rect class="dff" x="147.36" y="102.05999999999999" width="12.959999999999999" height="3.78"/>
<text x="153.84" y="103.94999999999999">109</text>
<rect class="dly" x="160.32000000000002" y="102.05999999999999" width="4.32" height="3.78"/>
<text x="162.48000000000002" y="103.94999999999999">109</text>
<rect class="dff" x="164.64000000000001" y="102.05999999999999" width="12.959999999999999" height="3.78"/>
<text x="171.12" y="103.94999999999999">110</text>
<rect class="dly" x="177.60000000000002" y="102.05999999999999" width="4.32" height="3.78"/>
<text x="179.76000000000002" y="103.94999999999999">110</text>
<rect class="dff" x="181.92000000000002" y="102.05999999999999" width="12.959999999999999" height="3.78"/>
<text x="188.4" y="103.94999999999999">111</text>
<rect class="dly" x="194.88000000000002" y="102.05999999999999" width="4.32" height="3.78"/>
<text x="197.04000000000002" y="103.94999999999999">111</text>
<rect class="dff" x="2.88" y="105.83999999999999" width="12.959999999999999" height="3.78"/>
<text x="9.36" y="107.72999999999999">112</text>
<rect class="dly" x="15.84" y="105.83999999999999" width="4.32" height="3.78"/>
<text x="18.0" y="107.72999999999999">112</text>
<rect class="dff" x="20.16" y="105.83999999999999" width="12.959999999999999" height="3.78"/>
<text x="26.64" y="107.72999999999999">113</text>
<rect class="dly" x="33.120000000000005" y="105.83999999999999" width="4.32" height="3.78"/>
<text x="35.28" y="107.72999999999999">113</text>
<rect class="dff" x="37.440000000000005" y="105.83999999999999" width="12.959999999999999" height="3.78"/>
<text x="43.92" y="107.72999999999999">114</text>
<rect class="dly" x="50.400000000000006" y="105.83999999999999" width="4.32" height="3.78"/>
<text x="52.56" y="107.72999999999999">114</text>
<rect class="dff" x="54.720000000000006" y="105.83999999999999" width="12.959999999999999" height="3.78"/>
<text x="61.2" y="107.72999999999999">115</text>
<rect class="dly" x="67.68" y="105.83999999999999" width="4.32" height="3.78"/>
<text x="69.84" y="107.72999999999999">115</text>
<rect class="dff" x="186.24" y="105.83999999999999" width="12.959999999999999" height="3.78"/>
<text x="192.72" y="107.72999999999999">112</text>
<rect class="dly" x="181.92000000000002" y="105.83999999999999" width="4.32" height="3.78"/>
<text x="184.08" y="107.72999999999999">112</text>
<rect class="dff" x="168.96" y="105.83999999999999" width="12.959999999999999" height="3.78"/>
<text x="175.44" y="107.72999999999999">113</text>
<rect class="dly" x="164.64000000000001" y="105.83999999999999" width="4.32" height="3.78"/>
<text x="166.8" y="107.72999999999999">113</text>
<rect class="dff" x="151.68" y="105.83999999999999" width="12.959999999999999" height="3.78"/>
<text x="158.16" y="107.72999999999999">114</text>
<rect class="dly" x="147.36" y="105.83999999999999" width="4.32" height="3.78"/>
<text x="149.52" y="107.72999999999999">114</text>
<rect class="dff" x="134.4" y="105.83999999999999" width="12.959999999999999" height="3.78"/>
<text x="140.88" y="107.72999999999999">115</text>
<rect class="dly" x="130.08" y="105.83999999999999" width="4.32" height="3.78"/>
<text x="132.24" y="107.72999999999999">115</text>
<rect class="dff" x="59.04" y="109.61999999999999" width="12.959999999999999" height="3.78"/>
<text x="65.52" y="111.50999999999999">116</text>
<rect class="dly" x="54.72" y="109.61999999999999" width="4.32" height="3.78"/>
<text x="56.879999999999995" y="111.50999999999999">116</text>
<rect class="dff" x="41.76" y="109.61999999999999" width="12.959999999999999" height="3.78"/>
<text x="48.239999999999995" y="111.50999999999999">117</text>
<rect class="dly" x="37.44" y="109.61999999999999" width="4.32" height="3.78"/>
<text x="39.599999999999994" y="111.50999999999999">117</text>
<rect class="dff" x="24.479999999999997" y="109.61999999999999" width="12.959999999999999" height="3.78"/>
<text x="30.959999999999997" y="111.50999999999999">118</text>
<rect class="dly" x="20.159999999999997" y="109.61999999999999" width="4.32" height="3.78"/>
<text x="22.319999999999997" y="111.50999999999999">118</text>
<rect class="dff" x="7.199999999999996" y="109.61999999999999" width="12.959999999999999" height="3.78"/>
<text x="13.679999999999996" y="111.50999999999999">119</text>
<rect class="dly" x="2.8799999999999955" y="109.61999999999999" width="4.32" height="3.78"/>
<text x="5.039999999999996" y="111.50999999999999">119</text>
<rect class="dff" x="130.08" y="109.61999999999999" width="12.959999999999999" height="3.78"/>
<text x="136.56" y="111.50999999999999">116</text>
<rect class="dly" x="143.04000000000002" y="109.61999999999999" width="4.32" height="3.78"/>
<text x="145.20000000000002" y="111.50999999999999">116</text>
<rect class="dff" x="147.36" y="109.61999999999999" width="12.959999999999999" height="3.78"/>
<text x="153.84" y="111.50999999999999">117</text>
<rect class="dly" x="160.32000000000002" y="109.61999999999999" width="4.32" height="3.78"/>
<text x="162.48000000000002" y="111.50999999999999">117</text>
<rect class="dff" x="164.64000000000001" y="109.61999999999999" width="12.959999999999999" height="3.78"/>
<text x="171.12" y="111.50999999999999">118</text>
<rect class="dly" x="177.60000000000002" y="109.61999999999999" width="4.32" height="3.78"/>
<text x="179.76000000000002" y="111.50999999999999">118</text>
<rect class="dff" x="181.92000000000002" y="109.61999999999999" width="12.959999999999999" height="3.78"/>
<text x="188.4" y="111.50999999999999">119</text>
<rect class="dly" x="194.88000000000002" y="109.61999999999999" width="4.32" height="3.78"/>
<text x="197.04000000000002" y="111.50999999999999">119</text>
<rect class="dff" x="2.88" y="113.39999999999999" width="12.959999999999999" height="3.78"/>
<text x="9.36" y="115.28999999999999">120</text>
<rect class="dly" x="15.84" y="113.39999999999999" width="4.32" height="3.78"/>
<text x="18.0" y="115.28999999999999">120</text>
<rect class="dff" x="20.16" y="113.39999999999999" width="12.959999999999999" height="3.78"/>
<text x="26.64" y="115.28999999999999">121</text>
<rect class="dly" x="33.120000000000005" y="113.39999999999999" width="4.32" height="3.78"/>
<text x="35.28" y="115.28999999999999">121</text>
<rect class="dff" x="37.440000000000005" y="113.39999999999999" width="12.959999999999999" height="3.78"/>
<text x="43.92" y="115.28999999999999">122</text>
<rect class="dly" x="50.400000000000006" y="113.39999999999999" width="4.32" height="3.78"/>
<text x="52.56" y="115.28999999999999">122</text>
<rect class="dff" x="54.720000000000006" y="113.39999999999999" width="12.959999999999999" height="3.78"/>
<text x="61.2" y="115.28999999999999">123</text>
<rect class="dly" x="67.68" y="113.39999999999999" width="4.32" height="3.78"/>
<text x="69.84" y="115.28999999999999">123</text>
<rect class="dff" x="186.24" y="113.39999999999999" width="12.959999999999999" height="3.78"/>
<text x="192.72" y="115.28999999999999">120</text>
<rect class="dly" x="181.92000000000002" y="113.39999999999999" width="4.32" height="3.78"/>
<text x="184.08" y="115.28999999999999">120</text>
<rect class="dff" x="168.96" y="113.39999999999999" width="12.959999999999999" height="3.78"/>
<text x="175.44" y="115.28999999999999">121</text>
<rect class="dly" x="164.64000000000001" y="113.39999999999999" width="4.32" height="3.78"/>
<text x="166.8" y="115.28999999999999">121</text>
<rect class="dff" x="151.68" y="113.39999999999999" width="12.959999999999999" height="3.78"/>
<text x="158.16" y="115.28999999999999">122</text>
<rect class="dly" x="147.36" y="113.39999999999999" width="4.32" height="3.78"/>
<text x="149.52" y="115.28999999999999">122</text>
<rect class="dff" x="134.4" y="113.39999999999999" width="12.959999999999999" height="3.78"/>
<text x="140.88" y="115.28999999999999">123</text>
<rect class="dly" x="130.08" y="113.39999999999999" width="4.32" height="3.78"/>
<text x="132.24" y="115.28999999999999">123</text>
<rect class="dff" x="59.04" y="117.17999999999999" width="12.959999999999999" height="3.78"/>
<text x="65.52" y="119.07">124</text>
<rect class="dly" x="54.72" y="117.17999999999999" width="4.32" height="3.78"/>
<text x="56.879999999999995" y="119.07">124</text>
<rect class="dff" x="41.76" y="117.17999999999999" width="12.959999999999999" height="3.78"/>
<text x="48.239999999999995" y="119.07">125</text>
<rect class="dly" x="37.44" y="117.17999999999999" width="4.32" height="3.78"/>
<text x="39.599999999999994" y="119.07">125</text>
<rect class="dff" x="24.479999999999997" y="117.17999999999999" width="12.959999999999999" height="3.78"/>
<text x="30.959999999999997" y="119.07">126</text>
<rect class="dly" x="20.159999999999997" y="117.17999999999999" width="4.32" height="3.78"/>
<text x="22.319999999999997" y="119.07">126</text>
<rect class="dff" x="7.199999999999996" y="117.17999999999999" width="12.959999999999999" height="3.78"/>
<text x="13.679999999999996" y="119.07">127</text>
<rect class="dly" x="2.8799999999999955" y="117.17999999999999" width="4.32" height="3.78"/>
<text x="5.039999999999996" y="119.07">127</text>
<rect class="dff" x="130.08" y="117.17999999999999" width="12.959999999999999" height="3.78"/>
<text x="136.56" y="119.07">124</text>
<rect class="dly" x="143.04000000000002" y="117.17999999999999" width="4.32" height="3.78"/>
<text x="145.20000000000002" y="119.07">124</text>
<rect class="dff" x="147.36" y="117.17999999999999" width="12.959999999999999" height="3.78"/>
<text x="153.84" y="119.07">125</text>
<rect class="dly" x="160.32000000000002" y="117.17999999999999" width="4.32" height="3.78"/>
<text x="162.48000000000002" y="119.07">125</text>
<rect class="dff" x="164.64000000000001" y="117.17999999999999" width="12.959999999999999" height="3.78"/>
<text x="171.12" y="119.07">126</text>
<rect class="dly" x="177.60000000000002" y="117.17999999999999" width="4.32" height="3.78"/>
<text x="179.76000000000002" y="119.07">126</text>
<rect class="dff" x="181.92000000000002" y="117.17999999999999" width="12.959999999999999" height="3.78"/>
<text x="188.4" y="119.07">127</text>
<rect class="dly" x="194.88000000000002" y="117.17999999999999" width="4.32" height="3.78"/>
<text x="197.04000000000002" y="119.07">127</text>
<rect class="dff" x="2.88" y="120.96" width="12.959999999999999" height="3.78"/>
<text x="9.36" y="122.85">128</text>
<rect class="dly" x="15.84" y="120.96" width="4.32" height="3.78"/>
<text x="18.0" y="122.85">128</text>
<rect class="dff" x="20.16" y="120.96" width="12.959999999999999" height="3.78"/>
<text x="26.64" y="122.85">129</text>
<rect class="dly" x="33.120000000000005" y="120.96" width="4.32" height="3.78"/>
<text x="35.28" y="122.85">129</text>
<rect class="dff" x="37.440000000000005" y="120.96" width="12.959999999999999" height="3.78"/>
<text x="43.92" y="122.85">130</text>
<rect class="dly" x="50.400000000000006" y="120.96" width="4.32" height="3.78"/>
<text x="52.56" y="122.85">130</text>
<rect class="dff" x="54.720000000000006" y="120.96" width="12.959999999999999" height="3.78"/>
<text x="61.2" y="122.85">131</text>
<rect class="dly" x="67.68" y="120.96" width="4.32" height="3.78"/>
<text x="69.84" y="122.85">131</text>
<rect class="dff" x="186.24" y="120.96" width="12.959999999999999" height="3.78"/>
<text x="192.72" y="122.85">128</text>
<rect class="dly" x="181.92000000000002" y="120.96" width="4.32" height="3.78"/>
<text x="184.08" y="122.85">128</text>
<rect class="dff" x="168.96" y="120.96" width="12.959999999999999" height="3.78"/>
<text x="175.44" y="122.85">129</text>
<rect class="dly" x="164.64000000000001" y="120.96" width="4.32" height="3.78"/>
<text x="166.8" y="122.85">129</text>
<rect class="dff" x="151.68" y="120.96" width="12.959999999999999" height="3.78"/>
<text x="158.16" y="122.85">130</text>
<rect class="dly" x="147.36" y="120.96" width="4.32" height="3.78"/>
<text x="149.52" y="122.85">130</text>
<rect class="dff" x="134.4" y="120.96" width="12.959999999999999" height="3.78"/>
<text x="140.88" y="122.85">131</text>
<rect class="dly" x="130.08" y="120.96" width="4.32" height="3.78"/>
<text x="132.24" y="122.85">131</text>
</svg>